<?xml version="1.0" encoding="UTF-8" standalone="no" ?>
<!DOCTYPE svg PUBLIC "-//W3C//DTD SVG 1.1//EN" "http://www.w3.org/Graphics/SVG/1.1/DTD/svg11.dtd">
<svg xmlns="http://www.w3.org/2000/svg" xmlns:xlink="http://www.w3.org/1999/xlink" version="1.1" width="1280" height="1024" viewBox="0 0 1280 1024" xml:space="preserve">
<desc>Created with Fabric.js 3.1.0</desc>
<defs>
</defs>
<g transform="matrix(1.9692780337941629 0 0 1.9692780337941629 640.0153846153846 512.012312418764)" id="background-logo"  >
<rect style="stroke: none; stroke-width: 1; stroke-dasharray: none; stroke-linecap: butt; stroke-dashoffset: 0; stroke-linejoin: miter; stroke-miterlimit: 4; fill: rgb(255,255,255); fill-rule: nonzero; opacity: 1;"  paint-order="stroke"  x="-325" y="-260" rx="0" ry="0" width="650" height="520" />
</g>
<g transform="matrix(1.9692780337941629 0 0 1.9692780337941629 650.1928111420312 509.02643121184514)" id="text-logo-path"  >
<path style="stroke: none; stroke-width: 1; stroke-dasharray: none; stroke-linecap: butt; stroke-dashoffset: 0; stroke-linejoin: miter; stroke-miterlimit: 10; fill: rgb(0,0,0); fill-rule: nonzero; opacity: 1;"  paint-order="stroke"  transform=" translate(-255.47, 224.79)" d="M 44.79 0 L 25.25 0 L 25.25 -449.58 L 47.24 -449.58 L 222.35 -117.28 L 200.36 -117.28 L 44.79 -412.38 L 44.79 0 Z M 83.89 0 L 64.34 0 L 64.34 -347.5 L 83.89 -310.31 L 83.89 0 Z M 244.34 -117.28 L 69.5 -449.58 L 91.76 -449.58 L 266.6 -117.28 L 244.34 -117.28 Z M 122.98 0 L 103.44 0 L 103.44 -273.11 L 122.98 -236.19 L 122.98 0 Z M 288.32 -117.28 L 113.75 -449.58 L 135.74 -449.58 L 299.72 -137.91 L 463.42 -449.58 L 485.69 -449.58 L 485.69 0 L 466.14 0 L 466.14 -412.38 L 310.58 -117.28 L 288.32 -117.28 Z M 162.08 0 L 142.53 0 L 142.53 -198.73 L 162.08 -161.8 L 162.08 0 Z M 273.38 -215.83 L 261.98 -236.46 L 374.92 -449.58 L 397.18 -449.58 L 273.38 -215.83 Z M 295.92 -173.21 L 284.79 -193.57 L 419.44 -449.58 L 441.43 -449.58 L 295.92 -173.21 Z M 368.4 0 L 348.86 0 L 348.86 -163.98 L 368.4 -200.9 L 368.4 0 Z M 407.5 0 L 387.95 0 L 387.95 -238.91 L 407.5 -275.83 L 407.5 0 Z M 446.59 0 L 427.04 0 L 427.04 -312.75 L 446.59 -349.94 L 446.59 0 Z" stroke-linecap="round" />
</g>
</svg>